<?xml version="1.0" encoding="UTF-8"?><svg id="Capa_2" xmlns="http://www.w3.org/2000/svg" viewBox="0 0 168.41 23.97"><defs><style>.cls-1{fill:#fff;}</style></defs><g id="hOME"><path class="cls-1" d="m.85,3.73h6.08v19.03c0,.47.38.85.85.85h.82c.47,0,.85-.38.85-.85V3.73h6.11c.47,0,.85-.38.85-.85v-.69c0-.47-.38-.85-.85-.85H.85c-.47,0-.85.38-.85.85v.69c0,.47.38.85.85.85Z"/><path class="cls-1" d="m24.21,7.09c-3.65,0-6,2.56-6,6.52v9.14c0,.47.38.85.85.85h.76c.47,0,.85-.38.85-.85v-9.04c0-2.61,1.42-4.23,3.71-4.23.89,0,1.73.22,2.47.66l.32.19v-2.57l-.12-.06c-.83-.4-1.81-.61-2.84-.61Z"/><path class="cls-1" d="m36.61,6.96c-4.78,0-8.52,3.71-8.52,8.45s3.63,8.52,8.26,8.52c2.7,0,5.06-1.27,6.46-3.43v2.26c0,.47.38.85.85.85h.66c.47,0,.85-.38.85-.85v-7.34c0-4.74-3.76-8.45-8.55-8.45Zm0,14.61c-3.34,0-6.06-2.75-6.06-6.13s2.72-6.13,6.06-6.13,6.1,2.75,6.1,6.13-2.73,6.13-6.1,6.13Z"/><path class="cls-1" d="m55.89,14.2c-2.02-.47-3.76-.87-3.76-2.41s1.68-2.37,3.25-2.37c1.85,0,2.99.6,3.7,1.95l.1.2,2.04-1.16-.1-.19c-1.11-2.01-3.16-3.12-5.78-3.12-3.24,0-5.67,2.03-5.67,4.73,0,3.49,2.97,4.16,5.6,4.75,2.05.46,3.82.86,3.82,2.48,0,1.87-1.98,2.53-3.68,2.53-2.03,0-3.31-.73-4.16-2.37l-.1-.2-2.04,1.12.09.19c1.17,2.31,3.4,3.58,6.27,3.58,3.52,0,6.07-2.06,6.07-4.89,0-3.51-3-4.2-5.65-4.81Z"/><path class="cls-1" d="m77.65,18.74c-1.05,1.83-2.81,2.83-4.95,2.83-3.16,0-5.83-2.81-5.83-6.13s2.67-6.13,5.83-6.13c2.18,0,3.89.99,4.95,2.87l.11.19,2.07-1.19-.1-.18c-1.43-2.6-3.92-4.03-7.02-4.03-4.57,0-8.29,3.81-8.29,8.49,0,2.31.9,4.47,2.54,6.1,1.55,1.54,3.58,2.39,5.69,2.39,3.12.01,5.64-1.42,7.08-4.04l.1-.19-2.07-1.16-.11.18Z"/><path class="cls-1" d="m109.42,6.96c-4.65,0-7.77,3.34-7.77,8.32v7.47c0,.47.38.85.85.85h.76c.47,0,.85-.38.85-.85v-7.31c0-3.05,1.64-6.13,5.31-6.13s5.47,3.09,5.47,6.16v7.28c0,.47.38.85.85.85h.76c.47,0,.85-.38.85-.85v-7.51c0-4.96-3.19-8.29-7.93-8.29Z"/><path class="cls-1" d="m124.84,3.11h-.76c-.47,0-.85.38-.85.85v3.37h-2.52c-.47,0-.85.38-.85.85v.56c0,.47.38.85.85.85h2.52v8.61c0,3.56,2.12,5.77,5.54,5.77,1.2,0,2.43-.4,3.3-1.06l.08-.06v-2.53l-.35.29c-.78.65-1.83,1.03-2.87,1.03-2.04,0-3.25-1.31-3.25-3.51v-8.55h5.62c.47,0,.85-.38.85-.85v-.56c0-.47-.38-.85-.85-.85h-5.62v-3.37c0-.47-.38-.85-.85-.85Z"/><path class="cls-1" d="m161.85,15.45c0-.26.13-.5.46-.83l5.85-5.85c.53-.53.16-1.45-.6-1.45h-.76c-.23,0-.44.09-.6.25l-5.54,5.54c-.25.25-.46.52-.63.79-.15.25-.42.39-.72.39h-.67c-.47,0-.85-.38-.85-.85V.85c0-.47-.38-.85-.85-.85h-.76c-.47,0-.85.38-.85.85v21.91c0,.47.38.85.85.85h.76c.47,0,.85-.38.85-.85v-5.4c0-.47.38-.85.85-.85h.56c.31,0,.6.16.74.44.18.34.39.64.66.9l5.47,5.5c.16.16.38.25.6.25h.86c.75,0,1.13-.91.6-1.45l-5.83-5.88c-.31-.31-.46-.58-.46-.83Z"/><path class="cls-1" d="m89.96,6.93c-4.58,0-8.03,3.65-8.03,8.49s3.61,8.52,8.39,8.52c3.1,0,5.59-1.43,7.02-4.03l.1-.19-1.94-1.05-.1.18c-1.28,2.26-3.47,2.74-5.08,2.74-3.11,0-5.52-2.12-5.94-5.19h0c-.39-2.58.82-4.4.82-4.4h0c.95-1.67,2.66-2.69,4.75-2.69,2.72,0,4.7,1.57,5.23,4.01.12.53-.29,1.02-.83,1.02h-6.67s0,0,0,0c0,0,0,0,0,0h-.02c-.56.01-1.01.47-1.01,1.03s.45,1.02,1.01,1.03h0s9.28,0,9.28,0c.47,0,.85-.38.85-.85v-.58c0-4.73-3.22-8.03-7.83-8.03Z"/><path class="cls-1" d="m142.7,6.93c-4.58,0-8.03,3.65-8.03,8.49s3.61,8.52,8.39,8.52c3.1,0,5.59-1.43,7.02-4.03l.1-.19-1.94-1.05-.1.18c-1.28,2.26-3.47,2.74-5.08,2.74-3.11,0-5.52-2.12-5.94-5.19h0c-.39-2.58.82-4.4.82-4.4h0c.95-1.67,2.66-2.69,4.75-2.69,2.72,0,4.7,1.57,5.23,4.01.12.53-.29,1.02-.83,1.02h-6.67s0,0,0,0c0,0,0,0,0,0h-.02c-.56.01-1.01.47-1.01,1.03s.45,1.02,1.01,1.03h0s9.28,0,9.28,0c.47,0,.85-.38.85-.85v-.58c0-4.73-3.22-8.03-7.83-8.03Z"/></g></svg>